<svg xmlns="http://www.w3.org/2000/svg" xmlns:xlink="http://www.w3.org/1999/xlink" style="margin: auto; background: rgba(255, 255, 255, 0); display: block; shape-rendering: auto;" width="210px" height="210px" viewBox="0 0 100 100" preserveAspectRatio="xMidYMid">
<g transform="translate(50 50)">
  <g transform="scale(0.92)">
    <g transform="translate(-50 -50)">
      <g>
        <animateTransform attributeName="transform" type="rotate" repeatCount="indefinite" values="0 50 50;360 50 50" keyTimes="0;1" dur="0.7575757575757576s"></animateTransform>
        <path fill-opacity="1" fill="#df4d57" d="M50 50L50 0A50 50 0 0 1 100 50Z"></path>
      </g>
      <g>
        <animateTransform attributeName="transform" type="rotate" repeatCount="indefinite" values="0 50 50;360 50 50" keyTimes="0;1" dur="1.0101010101010102s"></animateTransform>
        <path fill-opacity="1" fill="#9ad73f" d="M50 50L50 0A50 50 0 0 1 100 50Z" transform="rotate(90 50 50)"></path>
      </g>
      <g>
        <animateTransform attributeName="transform" type="rotate" repeatCount="indefinite" values="0 50 50;360 50 50" keyTimes="0;1" dur="1.5151515151515151s"></animateTransform>
        <path fill-opacity="1" fill="#3fa0e4" d="M50 50L50 0A50 50 0 0 1 100 50Z" transform="rotate(180 50 50)"></path>
      </g>
      <g>
        <animateTransform attributeName="transform" type="rotate" repeatCount="indefinite" values="0 50 50;360 50 50" keyTimes="0;1" dur="3.0303030303030303s"></animateTransform>
        <path fill-opacity="1" fill="rgba(255, 255, 255, 0.682838863249748)" d="M50 50L50 0A50 50 0 0 1 100 50Z" transform="rotate(270 50 50)"></path>
      </g>
    </g>
  </g>
</g>
</svg>